<svg xmlns="http://www.w3.org/2000/svg" style="display: none;">
    <symbol id="icon-sun" viewBox="0 0 24 24" fill="none" stroke="currentColor" stroke-width="2">
        <circle cx="12" cy="12" r="5"></circle>
        <line x1="12" y1="1" x2="12" y2="3"></line>
        <line x1="12" y1="21" x2="12" y2="23"></line>
        <line x1="4.22" y1="4.22" x2="5.64" y2="5.64"></line>
        <line x1="18.36" y1="18.36" x2="19.78" y2="19.78"></line>
        <line x1="1" y1="12" x2="3" y2="12"></line>
        <line x1="21" y1="12" x2="23" y2="12"></line>
        <line x1="4.22" y1="19.78" x2="5.64" y2="18.36"></line>
        <line x1="18.36" y1="5.64" x2="19.78" y2="4.22"></line>
    </symbol>
    <symbol id="icon-moon" viewBox="0 0 24 24" fill="none" stroke="currentColor" stroke-width="2">
        <path d="M21 12.79A9 9 0 1 1 11.21 3 7 7 0 0 0 21 12.79z"></path>
    </symbol>
    <symbol id="icon-upload" viewBox="0 0 24 24" fill="none" stroke="currentColor" stroke-width="2" stroke-linecap="round" stroke-linejoin="round">
        <path d="M12 16L12 8" />
        <path d="M9 11L12 8 15 11" />
        <path d="M8 16H16" />
        <path d="M3 12C3 7.02944 7.02944 3 12 3C16.9706 3 21 7.02944 21 12C21 16.9706 16.9706 21 12 21C7.02944 21 3 16.9706 3 12Z" />
    </symbol>
    <symbol id="icon-copy" viewBox="0 0 24 24" fill="none" stroke="currentColor" stroke-width="2">
        <rect x="9" y="9" width="13" height="13" rx="2" ry="2"></rect>
        <path d="M5 15H4a2 2 0 0 1-2-2V4a2 2 0 0 1 2-2h9a2 2 0 0 1 2 2v1"></path>
    </symbol>
    <symbol id="icon-check" viewBox="0 0 24 24" fill="none" stroke="currentColor" stroke-width="2">
        <polyline points="20 6 9 17 4 12"></polyline>
    </symbol>
    <symbol id="icon-download" viewBox="0 0 24 24" fill="none" stroke="currentColor" stroke-width="2">
        <path d="M21 15v4a2 2 0 0 1-2 2H5a2 2 0 0 1-2-2v-4"></path>
        <polyline points="7 10 12 15 17 10"></polyline>
        <line x1="12" y1="15" x2="12" y2="3"></line>
    </symbol>
</svg>
